<?xml version="1.0" standalone="no"?><!DOCTYPE svg PUBLIC "-//W3C//DTD SVG 1.1//EN" "http://www.w3.org/Graphics/SVG/1.1/DTD/svg11.dtd"><svg t="1571910642733" class="icon" viewBox="0 0 1024 1024" version="1.1" xmlns="http://www.w3.org/2000/svg" p-id="24562" xmlns:xlink="http://www.w3.org/1999/xlink" width="32" height="32"><defs><style type="text/css"></style></defs><path d="M981.314863 554.297138a681.2768 681.2768 0 0 1-46.986987 152.745955Q828.621907 937.777025 573.344982 949.241022a593.062826 593.062826 0 0 1-228.688933-33.85299v-1.023l-31.808991 79.979977a55.759984 55.759984 0 0 1-20.505994 22.549993 40.042988 40.042988 0 0 1-21.043993 5.382999 51.076985 51.076985 0 0 1-19.483995-5.381999 95.209972 95.209972 0 0 1-13.346996-7.158998 52.314985 52.314985 0 0 1-5.382998-4.627998l-161.410953-273.19992a57.427983 57.427983 0 0 1-7.158998-21.528994 46.932986 46.932986 0 0 1 1.023-17.437995 35.952989 35.952989 0 0 1 7.157998-13.347996 74.435978 74.435978 0 0 1 10.279997-10.279997 60.495982 60.495982 0 0 1 11.249996-7.373998 50.430985 50.430985 0 0 1 8.179998-3.605999 6.189998 6.189998 0 0 0 3.067999-1.775999l281.003918-74.865978a91.496973 91.496973 0 0 1 35.898989-2.583 122.336964 122.336964 0 0 1 22.173994 6.403998 21.528994 21.528994 0 0 1 12.325996 12.325997 76.157978 76.157978 0 0 1 4.627999 14.853996 47.631986 47.631986 0 0 1 0 14.369995 55.166984 55.166984 0 0 1-2.045 10.764997 10.763997 10.763997 0 0 0-1.022999 3.605999l-32.829991 79.979977a677.509802 677.509802 0 0 0 164.262952 39.504988q77.395977 7.695998 131.809962-3.605999a358.506895 358.506895 0 0 0 101.02397-36.921989 381.273888 381.273888 0 0 0 73.949978-50.753985 352.639897 352.639897 0 0 0 48.709986-55.382984 410.39188 410.39188 0 0 0 26.909992-41.549988c3.767999-7.480998 6.674998-13.616996 8.719998-18.460994z m-940.429725-104.62997A685.689799 685.689799 0 0 1 104.450119 273.24022Q222.481085 60.966282 478.78001 66.080281a571.802832 571.802832 0 0 1 207.159939 39.989988l33.85399-78.956977a75.619978 75.619978 0 0 1 15.392996-17.922995A37.674989 37.674989 0 0 1 750.57993 0.9543a42.303988 42.303988 0 0 1 14.854996-0.538 47.578986 47.578986 0 0 1 13.347996 3.605999 102.90697 102.90697 0 0 1 11.302997 6.135998 49.569985 49.569985 0 0 1 6.673998 4.628999l3.066999 3.066999 154.845954 276.913919a81.969976 81.969976 0 0 1 6.135999 22.712993 46.985986 46.985986 0 0 1-1.023 17.437995 32.292991 32.292991 0 0 1-7.696998 13.347996 69.32298 69.32298 0 0 1-10.763997 9.741997 92.142973 92.142973 0 0 1-11.302996 6.672998l-8.179998 4.089999a7.103998 7.103998 0 0 1-3.067999 1.024l-283.049917 67.54598a112.002967 112.002967 0 0 1-46.124987-1.023c-11.570997-3.389999-19.159994-8.019998-22.550993-13.831996a41.173988 41.173988 0 0 1-5.381999-21.043994 97.255972 97.255972 0 0 1 1.291-17.438995 24.380993 24.380993 0 0 1 3.067999-8.233997l34.60799-78.956977a663.730806 663.730806 0 0 0-164.102952-43.056987q-77.987977-9.203997-131.809961 0a348.226898 348.226898 0 0 0-101.291971 33.85399 368.571892 368.571892 0 0 0-75.350978 49.246985 383.319888 383.319888 0 0 0-50.269985 54.359984 408.50788 408.50788 0 0 0-28.739991 41.011988 113.025967 113.025967 0 0 0-8.180998 17.437995z m0 0" p-id="24563" fill="#cdcdcd"></path></svg>