<?xml version="1.0" standalone="no"?><!DOCTYPE svg PUBLIC "-//W3C//DTD SVG 1.1//EN" "http://www.w3.org/Graphics/SVG/1.1/DTD/svg11.dtd"><svg t="1571910139953" class="icon" viewBox="0 0 1024 1024" version="1.1" xmlns="http://www.w3.org/2000/svg" p-id="23553" xmlns:xlink="http://www.w3.org/1999/xlink" width="32" height="32"><defs><style type="text/css"></style></defs><path d="M81.391616 223.842304l91.885568 61.25568a430.501888 430.501888 0 0 0-36.462592 67.575808c-10.694656 25.280512-18.960384 51.531776-24.30976 78.757888L4.087808 410.038272c14.102528-68.05504 40.357888-131.25632 77.303808-186.195968z m142.446592-142.446592l61.25568 91.885568a430.501888 430.501888 0 0 1 67.575808-36.462592c25.280512-10.694656 51.535872-18.960384 78.757888-24.30976L410.042368 4.096c-68.063232 13.611008-130.781184 40.353792-186.20416 77.299712z m511.451136 91.885568l61.25568-91.885568c-55.422976-36.950016-118.136832-63.688704-185.716736-76.816384l-21.393408 108.417024c26.738688 5.349376 52.994048 13.12768 78.757888 24.30976 23.339008 9.723904 45.703168 21.876736 67.096576 35.975168zM112.992256 588.955648l-108.417024 21.393408c13.611008 67.575808 39.866368 130.29376 76.816384 185.716736l91.885568-61.25568a430.501888 430.501888 0 0 1-36.462592-67.575808c-10.694656-24.80128-18.47296-51.052544-23.822336-78.278656z m794.39872-158.0032L1015.808 409.55904c-13.611008-67.575808-39.866368-130.29376-76.816384-185.716736l-91.885568 61.25568a430.501888 430.501888 0 0 1 36.462592 67.575808c10.698752 25.284608 18.477056 51.539968 23.822336 78.278656zM285.097984 847.110144l-61.25568 91.398144c55.422976 36.950016 118.140928 63.688704 185.716736 76.816384l21.393408-108.417024c-26.738688-5.349376-52.994048-13.12768-78.757888-24.30976-23.343104-9.232384-45.707264-21.385216-67.096576-35.487744z m298.508288-263.499776l147.308544 404.979712 51.535872-128.34816 112.304128 112.304128c21.393408 21.393408 56.393728 21.393408 78.27456 0 21.393408-21.393408 21.393408-56.393728 0-78.27456l-112.304128-112.304128 128.34816-51.535872-405.467136-146.82112z" p-id="23554" fill="#515151"></path></svg>