<?xml version="1.0" standalone="no"?><!DOCTYPE svg PUBLIC "-//W3C//DTD SVG 1.1//EN" "http://www.w3.org/Graphics/SVG/1.1/DTD/svg11.dtd"><svg t="1574059555401" class="icon" viewBox="0 0 1024 1024" version="1.1" xmlns="http://www.w3.org/2000/svg" p-id="2976" xmlns:xlink="http://www.w3.org/1999/xlink" width="32" height="32"><defs><style type="text/css"></style></defs><path d="M280.526848 8.192h194.523136v116.71552H280.526848V8.192z m466.857984 0h-194.523136v116.71552h194.523136V8.192zM280.526848 1019.723776h194.523136v-116.71552H280.526848v116.71552zM124.90752 8.192A116.436992 116.436992 0 0 0 8.192 124.90752v77.811712h116.71552v-38.903808c0-21.397504 17.506304-38.903808 38.903808-38.903808h38.903808V8.192H124.90752z m0 272.334848H8.192v194.523136h116.71552V280.526848zM8.192 747.388928h116.71552v-194.523136H8.192v194.523136z m116.71552 116.71552v-38.903808H8.192v77.811712a116.436992 116.436992 0 0 0 116.71552 116.71552h77.811712v-116.71552h-38.903808c-21.4016-0.004096-38.907904-17.5104-38.907904-38.907904zM903.008256 163.815424v38.903808h116.71552V124.90752A116.441088 116.441088 0 0 0 903.008256 8.192h-77.811712v116.71552h38.903808c21.397504 0 38.907904 17.506304 38.907904 38.907904z m0 311.238656h116.71552V280.526848h-116.71552v194.527232zM1002.7008 920.027136l-118.66112-118.66112 135.68-54.468608-427.954176-155.619328 155.619328 427.954176 54.468608-135.68 118.66112 118.66112c22.85568 22.85568 59.817984 22.85568 82.673664 0 22.368256-22.368256 22.368256-59.326464-0.487424-82.18624z" p-id="2977" fill="#515151"></path></svg>