<?xml version="1.0" standalone="no"?><!DOCTYPE svg PUBLIC "-//W3C//DTD SVG 1.1//EN" "http://www.w3.org/Graphics/SVG/1.1/DTD/svg11.dtd"><svg t="1571907644288" class="icon" viewBox="0 0 1024 1024" version="1.1" xmlns="http://www.w3.org/2000/svg" p-id="8895" xmlns:xlink="http://www.w3.org/1999/xlink" width="32" height="32"><defs><style type="text/css"></style></defs><path d="M393.568 316.253c-1.399-11.841-3.239-23.664-6.189-35.294-16.977-5.021-32.191-14.179-45.624-27.611-21.307-21.306-31.962-47.136-31.962-77.352 0-30.101 10.655-55.931 31.962-77.237l0.115 0c21.307-21.326 47.023-32.094 77.241-32.094 30.217 0 55.932 10.768 77.239 32.094 21.443 21.306 32.096 47.02 32.096 77.237 0 30.178-10.635 55.968-32 77.275 3.948 11.612 7.435 23.222 10.501 34.834 4.407-3.488 8.679-7.262 12.82-11.363l0-0.096c27.805-27.802 41.638-61.314 41.638-100.651 0-39.222-13.833-72.735-41.638-100.652-27.805-27.688-61.433-41.637-100.656-41.637s-72.852 13.949-100.657 41.637c-27.784 27.917-41.637 61.429-41.637 100.652 0 39.337 13.854 72.849 41.637 100.651C340.031 298.203 365.017 311.405 393.568 316.253zM788.622 570.209c-0.843-0.039-1.361-0.882-1.648-1.36-11.554-23.626-26.404-45.432-44.396-64.784-21.156-22.36-51.085-39.145-82.224-43.839l-0.748-0.517-22.438-0.939-14.236-23.664c-2.07-3.545-4.887-6.553-8.163-9.388-19.276-16.92-41.79-25.733-67.698-26.443l-22.822 4.542-0.65-1.936-0.748-0.517-71.358-270.742c-9.907-34.816-27.056-34.911-45.567-31.634 0 0-37.652 5.365-30.524 45.813l70.841 379.918c0.67 3.967 1.188 7.799 1.072 11.708 0.173 17.801-5.633 33.282-17.284 46.943-2.95 4.121-8.144 7.454-11.4 7.856-21.96 3.508-41.274-1.628-58.252-15.385-21.519-16.191-36.714-50.219-51.449-72.065-8.317-12.3-15.272-27.84-25.447-39.011-18.49-20.311-58.845-35.37-82.107-16.325-7.587 6.209-15.444 22.82-8.603 31.808 9.964 13.086 22.572 27.803 29.298 41.386 5.807 11.708 10.424 24.507 14.793 37.9 2.97 9.083 5.154 30.312 11.593 36.08 6.936 6.228 12.244 20.79 17.302 28.052 12.168 17.418 27.727 38.321 35.43 58.326 21.653 32.841 31.56 73.96 57.293 106.513 29.835 37.729 60.819 72.467 105.33 94.769 16.499 9.351 29.165 21.882 38.113 37.919l15.291 78.33c57.868-10.731 289.991-50.049 314.824-55.069l-15.329-67.176-0.728-0.844c5.116-16.938 9.792-34.241 14.314-51.542 3.469-13.758 5.538-27.629 6.035-41.598 1.8-37 3.314-74.19 4.963-111.363 0.153-6.61 0.766-13.316 1.857-19.697C846.049 630.872 833.861 572.605 788.622 570.209z" p-id="8896" fill="#cdcdcd"></path></svg>